<svg width="50" height="50" viewBox="0 0 50 50" fill="none" xmlns="http://www.w3.org/2000/svg">
<rect width="50" height="50" rx="12" fill="#F3F6F9"/>
<path d="M27.186 40H23.8143C18.3901 40 13.9773 35.5871 13.9773 30.163V14.2691C13.9772 12.4665 15.4437 11 17.2463 11C19.0489 11 20.5154 12.4665 20.5154 14.2691V30.163C20.5154 31.982 21.9953 33.4619 23.8143 33.4619H27.186C29.005 33.4619 30.4849 31.9821 30.4849 30.163C30.4849 28.344 29.005 26.8641 27.186 26.8641H25.5949C23.7923 26.8641 22.3258 25.3976 22.3258 23.5951C22.3258 21.7925 23.7922 20.326 25.5949 20.326H27.186C32.6101 20.326 37.0229 24.7389 37.0229 30.1629C37.0229 35.5871 32.6101 40 27.186 40Z" fill="#FF3C3C"/>
<path d="M27.1857 20.3262H26.3677V26.8643H27.1857C29.0047 26.8643 30.4845 28.3441 30.4845 30.1631C30.4845 31.9821 29.0047 33.462 27.1857 33.462H26.3677V40.0001H27.1857C32.6098 40.0001 37.0226 35.5873 37.0226 30.1631C37.0226 24.739 32.6098 20.3262 27.1857 20.3262Z" fill="#DA0806"/>
</svg>
