<svg width="28" height="28" viewBox="0 0 28 28" fill="none" xmlns="http://www.w3.org/2000/svg">
<path opacity="0.25" d="M3.5 4.6665C3.5 2.73351 5.067 1.1665 7 1.1665H18.3836C19.3118 1.1665 20.2021 1.53525 20.8585 2.19163L23.4749 4.80805C24.1313 5.46442 24.5 6.35466 24.5 7.28292V23.3332C24.5 25.2662 22.933 26.8332 21 26.8332H7C5.067 26.8332 3.5 25.2662 3.5 23.3332V4.6665Z" fill="#A2A7B4"/>
<path d="M17.5 2.20694C17.5 1.63232 17.9658 1.1665 18.5404 1.1665C19.3683 1.1665 20.1622 1.49536 20.7475 2.08072L23.5858 4.91896C24.1711 5.50432 24.5 6.29824 24.5 7.12606C24.5 7.70068 24.0342 8.1665 23.4596 8.1665H18.6667C18.0223 8.1665 17.5 7.64417 17.5 6.99984V2.20694Z" fill="#A2A7B4"/>
<path fill-rule="evenodd" clip-rule="evenodd" d="M19.3666 13.0669C19.8821 13.4535 19.9866 14.1848 19.6 14.7002L16.1 19.3669C15.7284 19.8622 15.0347 19.9811 14.5195 19.6376L11.9902 17.9514L10.304 20.4807C9.94661 21.0168 9.22226 21.1617 8.68614 20.8043C8.15003 20.4469 8.00516 19.7225 8.36257 19.1864L10.6959 15.6864C11.0533 15.1503 11.7777 15.0054 12.3138 15.3628L14.8955 17.084L17.7333 13.3002C18.1199 12.7848 18.8512 12.6803 19.3666 13.0669Z" fill="#A2A7B4"/>
</svg>
