<svg width="28" height="28" viewBox="0 0 28 28" fill="none" xmlns="http://www.w3.org/2000/svg">
<path d="M22.7704 2.63926C24.178 2.76101 25.2743 3.81812 25.466 5.218C25.5759 6.02092 25.6667 6.89302 25.6667 7.5835C25.6667 8.27398 25.5759 9.14608 25.466 9.94899C25.2743 11.3489 24.178 12.406 22.7703 12.5277C21.0316 12.6781 18.2151 12.8335 14.0001 12.8335C9.78509 12.8335 6.9686 12.6781 5.22981 12.5277C3.82211 12.406 2.72591 11.3489 2.53419 9.94899C2.42422 9.14608 2.33341 8.27397 2.33341 7.5835C2.33341 6.89302 2.42422 6.02091 2.53419 5.218C2.72591 3.81812 3.82211 2.76101 5.22981 2.63926C6.9686 2.48888 9.78509 2.3335 14.0001 2.3335C18.2151 2.3335 21.0316 2.48889 22.7704 2.63926Z" fill="#A2A7B4"/>
<path opacity="0.25" d="M22.7704 15.4723C24.178 15.594 25.2743 16.6511 25.466 18.051C25.5759 18.8539 25.6667 19.726 25.6667 20.4165C25.6667 21.107 25.5759 21.9791 25.466 22.782C25.2743 24.1819 24.178 25.239 22.7703 25.3607C21.0316 25.5111 18.2151 25.6665 14.0001 25.6665C9.78509 25.6665 6.9686 25.5111 5.22981 25.3607C3.82211 25.239 2.72591 24.1819 2.53419 22.782C2.42422 21.9791 2.33341 21.107 2.33341 20.4165C2.33341 19.726 2.42422 18.8539 2.53419 18.051C2.72591 16.6511 3.82211 15.594 5.22981 15.4723C6.9686 15.3219 9.78509 15.1665 14.0001 15.1665C18.2151 15.1665 21.0316 15.3219 22.7704 15.4723Z" fill="#A2A7B4"/>
</svg>
