<svg width="44" height="44" viewBox="0 0 44 44" fill="none" xmlns="http://www.w3.org/2000/svg">
<rect width="44" height="44" rx="6" fill="#FFF5F8"/>
<rect x="12" y="12" width="8.75" height="8.75" rx="1.5" fill="#F1416C"/>
<path opacity="0.3" fill-rule="evenodd" clip-rule="evenodd" d="M23.25 13.5C23.25 12.6716 23.9216 12 24.75 12H30.5C31.3284 12 32 12.6716 32 13.5V19.25C32 20.0784 31.3284 20.75 30.5 20.75H24.75C23.9216 20.75 23.25 20.0784 23.25 19.25V13.5ZM12 24.75C12 23.9216 12.6716 23.25 13.5 23.25H19.25C20.0784 23.25 20.75 23.9216 20.75 24.75V30.5C20.75 31.3284 20.0784 32 19.25 32H13.5C12.6716 32 12 31.3284 12 30.5V24.75ZM24.75 23.25C23.9216 23.25 23.25 23.9216 23.25 24.75V30.5C23.25 31.3284 23.9216 32 24.75 32H30.5C31.3284 32 32 31.3284 32 30.5V24.75C32 23.9216 31.3284 23.25 30.5 23.25H24.75Z" fill="#F1416C"/>
</svg>
