<svg width="122" height="122" viewBox="0 0 122 122" fill="none" xmlns="http://www.w3.org/2000/svg">
<g filter="url(#filter0_d_436_2252)">
<rect x="26" y="20" width="70" height="70" rx="9" fill="#F1416C"/>
<path opacity="0.3" d="M59.5 46.75C59.5 50.5 56.5 53.5 52.75 53.5C49 53.5 46 50.5 46 46.75C46 43 49 40 52.75 40C56.5 40 59.5 43 59.5 46.75ZM69.25 40C65.5 40 62.5 43 62.5 46.75C62.5 50.5 65.5 53.5 69.25 53.5C73 53.5 76 50.5 76 46.75C76 43 73 40 69.25 40ZM52.75 56.5C49 56.5 46 59.5 46 63.25C46 67 49 70 52.75 70C56.5 70 59.5 67 59.5 63.25C59.5 59.5 56.5 56.5 52.75 56.5ZM69.25 56.5C65.5 56.5 62.5 59.5 62.5 63.25C62.5 67 65.5 70 69.25 70C73 70 76 67 76 63.25C76 59.5 73 56.5 69.25 56.5Z" fill="white"/>
<path d="M69.2501 61.0001C69.1001 61.0001 69.2501 61.0001 69.2501 61.0001L68.0501 59.95C67.1501 59.05 66.5501 57.85 66.4001 56.65C66.2501 55.6 66.2501 54.4 66.4001 53.2C66.5501 52 67.1501 50.8 68.0501 49.9L69.1001 48.8501H69.2501C70.4501 48.8501 71.5001 47.8001 71.5001 46.6001C71.5001 45.4001 70.4501 44.3501 69.2501 44.3501C68.0501 44.3501 67.0001 45.4001 67.0001 46.6001V46.7501L65.9501 47.8001C65.0501 48.7001 63.8501 49.3 62.6501 49.45C61.6001 49.6 60.4001 49.6 59.2001 49.45C58.0001 49.3 56.8001 48.7001 55.9001 47.8001L54.8501 46.7501V46.6001C54.8501 45.4001 53.8001 44.3501 52.6001 44.3501C51.4001 44.3501 50.3501 45.4001 50.3501 46.6001C50.3501 47.8001 51.4001 48.8501 52.6001 48.8501H52.7501L53.8001 49.9C54.7001 50.8 55.3001 52 55.4501 53.2C55.6001 54.25 55.6001 55.45 55.4501 56.65C55.3001 57.85 54.7001 59.05 53.8001 59.95L52.7501 61.0001H52.6001C51.4001 61.0001 50.3501 62.0501 50.3501 63.2501C50.3501 64.4501 51.4001 65.5001 52.6001 65.5001C53.8001 65.5001 54.8501 64.4501 54.8501 63.2501V63.1001L55.9001 62.0501C56.8001 61.1501 58.0001 60.55 59.2001 60.4C60.2501 60.25 61.4501 60.25 62.6501 60.4C63.8501 60.55 65.0501 61.1501 65.9501 62.0501L67.0001 63.1001V63.2501C67.0001 64.4501 68.0501 65.5001 69.2501 65.5001C70.4501 65.5001 71.5001 64.4501 71.5001 63.2501C71.5001 62.0501 70.4501 61.0001 69.2501 61.0001Z" fill="white"/>
</g>
<defs>
<filter id="filter0_d_436_2252" x="0" y="0" width="122" height="122" filterUnits="userSpaceOnUse" color-interpolation-filters="sRGB">
<feFlood flood-opacity="0" result="BackgroundImageFix"/>
<feColorMatrix in="SourceAlpha" type="matrix" values="0 0 0 0 0 0 0 0 0 0 0 0 0 0 0 0 0 0 127 0" result="hardAlpha"/>
<feOffset dy="6"/>
<feGaussianBlur stdDeviation="13"/>
<feComposite in2="hardAlpha" operator="out"/>
<feColorMatrix type="matrix" values="0 0 0 0 0.0941176 0 0 0 0 0.109804 0 0 0 0 0.196078 0 0 0 0.24 0"/>
<feBlend mode="normal" in2="BackgroundImageFix" result="effect1_dropShadow_436_2252"/>
<feBlend mode="normal" in="SourceGraphic" in2="effect1_dropShadow_436_2252" result="shape"/>
</filter>
</defs>
</svg>
