<svg width="44" height="44" viewBox="0 0 44 44" fill="none" xmlns="http://www.w3.org/2000/svg">
<rect width="44" height="44" rx="6" fill="#FFF4DE"/>
<path fill-rule="evenodd" clip-rule="evenodd" d="M14.3333 12.25C13.781 12.25 13.3333 12.6977 13.3333 13.25V30.75C13.3333 31.3023 13.781 31.75 14.3333 31.75H15.5833C16.1355 31.75 16.5833 31.3023 16.5833 30.75V13.25C16.5833 12.6977 16.1355 12.25 15.5833 12.25H14.3333ZM19.7499 12.25C19.1976 12.25 18.7499 12.6977 18.7499 13.25V30.75C18.7499 31.3023 19.1976 31.75 19.7499 31.75H20.9999C21.5522 31.75 21.9999 31.3023 21.9999 30.75V13.25C21.9999 12.6977 21.5522 12.25 20.9999 12.25H19.7499Z" fill="#FFA800"/>
<rect opacity="0.3" x="23.6003" y="13.251" width="3.25" height="19.5" rx="1" transform="rotate(-19 23.6003 13.251)" fill="#FFA800"/>
</svg>
