<svg width="70" height="70" viewBox="0 0 70 70" fill="none" xmlns="http://www.w3.org/2000/svg">
<rect x="0.5" y="0.5" width="69" height="69" rx="8.5" fill="#EFD600"/>
<path opacity="0.3" d="M30.8159 47.2399L28.3679 49.6879C27.7919 50.2639 26.9279 50.2639 26.3519 49.6879L23.9039 47.2399H30.8159ZM23.7599 40.1839L21.3119 42.632C20.7359 43.208 20.7359 44.0719 21.3119 44.6479L23.7599 47.096V40.1839ZM45.7919 30.2479L40.7519 25.2079C40.1759 24.6319 39.3119 24.6319 38.7359 25.2079L30.9599 32.9839V47.2399L45.7919 32.4079C46.3679 31.8319 46.3679 30.8239 45.7919 30.2479Z" fill="white"/>
<path d="M48.2401 38.5998V45.7998C48.2401 46.6638 47.6641 47.2398 46.8001 47.2398H34.9921L45.0721 37.1598H46.8001C47.6641 37.1598 48.2401 37.7358 48.2401 38.5998ZM32.4001 47.2398V22.7598C32.4001 21.8958 31.8241 21.3198 30.9601 21.3198H23.7601C22.8961 21.3198 22.3201 21.8958 22.3201 22.7598V47.2398C22.3201 48.1038 22.8961 48.6798 23.7601 48.6798H30.9601C31.8241 48.6798 32.4001 48.1038 32.4001 47.2398ZM28.8001 43.6398C28.8001 44.5038 28.2241 45.0798 27.3601 45.0798C26.4961 45.0798 25.9201 44.5038 25.9201 43.6398C25.9201 42.7758 26.4961 42.1998 27.3601 42.1998C28.2241 42.1998 28.8001 42.7758 28.8001 43.6398Z" fill="white"/>
<rect x="0.5" y="0.5" width="69" height="69" rx="8.5" stroke="#FFEB39"/>
</svg>
