<svg width="70" height="70" viewBox="0 0 70 70" fill="none" xmlns="http://www.w3.org/2000/svg">
<rect x="0.5" y="0.5" width="69" height="69" rx="8.5" fill="#EFD600"/>
<path d="M44 49.4C41.9 47.6 30.65 47.45 26.45 48.8C25.55 49.1 24.65 48.8 24.05 48.2L20 44C23.3 40.7 33.2 39.65 40.7 40.7C41.3 44.45 42.5 47.75 44 49.4ZM45.2 21.2C44.6 20.6 43.7 20.3 42.8 20.6C38.6 21.95 27.35 21.8 25.25 20C27.2 21.95 28.1 25.25 28.55 28.55C30.5 28.85 32.45 29 34.55 29C40.7 29 46.7 27.8 49.25 25.25L45.2 21.2Z" fill="white"/>
<path opacity="0.3" d="M48.7999 42.95C49.0999 43.85 48.7999 44.75 48.1999 45.35L43.9999 49.4C40.6999 46.1 39.6499 36.2 40.6999 28.7C44.4499 28.1 47.5999 27.05 49.2499 25.4C47.5999 27.5 47.2999 38.75 48.7999 42.95ZM28.9999 34.55C28.9999 30.5 28.5499 23.3 25.2499 20L21.1999 24.2C20.5999 24.8 20.2999 25.7 20.5999 26.6C21.0499 28.1 21.4999 30.8 21.6499 34.55C21.6499 40.25 20.5999 43.4 20.1499 44C21.7999 42.35 24.9499 41.3 28.6999 40.7C28.9999 38.3 28.9999 36.05 28.9999 34.55Z" fill="white"/>
<rect x="0.5" y="0.5" width="69" height="69" rx="8.5" stroke="#FFEB39"/>
</svg>
