<svg width="44" height="44" viewBox="0 0 44 44" fill="none" xmlns="http://www.w3.org/2000/svg">
<rect width="44" height="44" rx="6" fill="#F1FAFF"/>
<path opacity="0.3" fill-rule="evenodd" clip-rule="evenodd" d="M14.2083 16.2917C14.2083 18.5929 16.0737 20.4583 18.3749 20.4583C20.6761 20.4583 22.5416 18.5929 22.5416 16.2917C22.5416 13.9905 20.6761 12.125 18.3749 12.125C16.0737 12.125 14.2083 13.9905 14.2083 16.2917ZM24.6249 20.4583C24.6249 22.1842 26.024 23.5833 27.7499 23.5833C29.4758 23.5833 30.8749 22.1842 30.8749 20.4583C30.8749 18.7324 29.4758 17.3333 27.7499 17.3333C26.024 17.3333 24.6249 18.7324 24.6249 20.4583Z" fill="#00B2FF"/>
<path fill-rule="evenodd" clip-rule="evenodd" d="M18.3576 22.5415C13.4395 22.5415 9.40444 25.0691 9.00068 30.0407C8.97869 30.3115 9.49658 30.8748 9.75781 30.8748H26.9653C27.7478 30.8748 27.76 30.2451 27.7478 30.0415C27.4426 24.9302 23.345 22.5415 18.3576 22.5415ZM33.4333 30.8748H29.4167C29.4167 28.5301 28.642 26.3663 27.3346 24.6255C30.883 24.6643 33.7804 26.4583 33.9984 30.2498C34.0072 30.4026 33.9984 30.8748 33.4333 30.8748Z" fill="#00B2FF"/>
</svg>
