<svg width="70" height="70" viewBox="0 0 70 70" fill="none" xmlns="http://www.w3.org/2000/svg">
<rect x="0.5" y="0.5" width="69" height="69" rx="8.5" fill="#EFD600"/>
<path opacity="0.3" d="M20.1499 32C21.4999 25.4 27.0499 20.45 33.7999 20L30.1999 23.6L33.6499 27.5C31.3999 27.95 29.4499 29.3 28.3999 31.4L23.7499 35.6L20.1499 32ZM45.9499 34.25L41.5999 38C40.5499 40.25 38.5999 41.9 36.0499 42.35L39.4999 46.25L35.8999 49.85C42.6499 49.4 48.1999 44.3 49.5499 37.85L45.9499 34.25Z" fill="white"/>
<path d="M37.7 20.1499C44.3 21.4999 49.25 27.0499 49.7 33.7999L46.1 30.1999L42.2 33.4999C41.75 31.0999 40.25 29.1499 38 28.0999L34.1 23.5999L37.7 20.1499ZM35.45 46.0999L31.55 41.5999C29.45 40.5499 27.95 38.5999 27.5 36.1999L23.6 39.6499L20 36.0499C20.45 42.7999 25.55 48.3499 32 49.6999L35.45 46.0999Z" fill="white"/>
<rect x="0.5" y="0.5" width="69" height="69" rx="8.5" stroke="#FFEB39"/>
</svg>
