<svg width="44" height="44" viewBox="0 0 44 44" fill="none" xmlns="http://www.w3.org/2000/svg">
<rect width="44" height="44" rx="6" fill="#E8FFF3"/>
<path opacity="0.3" d="M22 12.0826L16.3577 18.8534C15.8862 19.4191 15.0455 19.4956 14.4798 19.0241C13.9141 18.5527 13.8377 17.712 14.3091 17.1463L20.9757 9.14626C21.5088 8.50659 22.4913 8.50659 23.0243 9.14626L29.691 17.1463C30.1624 17.712 30.086 18.5527 29.5203 19.0241C28.9546 19.4956 28.1138 19.4191 27.6424 18.8534L22 12.0826Z" fill="#50CD89"/>
<path fill-rule="evenodd" clip-rule="evenodd" d="M12.179 18C11.4619 18 10.9779 18.7326 11.2592 19.3922L15.8892 30.2508C16.3607 31.3565 17.4468 32.0741 18.6488 32.0741H25.351C26.5532 32.0741 27.6393 31.3564 28.1107 30.2506L32.7398 19.3922C33.021 18.7325 32.537 18 31.8199 18H12.179ZM24.6666 26.0001C24.6666 27.4728 23.4727 28.6667 21.9999 28.6667C20.5272 28.6667 19.3332 27.4728 19.3332 26.0001C19.3332 24.5273 20.5272 23.3334 21.9999 23.3334C23.4727 23.3334 24.6666 24.5273 24.6666 26.0001Z" fill="#50CD89"/>
</svg>
