<svg width="70" height="70" viewBox="0 0 70 70" fill="none" xmlns="http://www.w3.org/2000/svg">
<rect x="0.5" y="0.5" width="69" height="69" rx="8.5" fill="#EFD600"/>
<path opacity="0.3" d="M43.859 36.5H33.809C33.809 35.6 33.209 35 32.309 35C31.409 35 30.809 35.6 30.809 36.5H26.759L30.809 29.6V23C29.909 23 29.309 22.4 29.309 21.5C29.309 20.6 29.909 20 30.809 20H39.809C40.709 20 41.309 20.6 41.309 21.5C41.309 22.4 40.709 23 39.809 23V29.6L43.859 36.5ZM36.809 30.5C35.909 30.5 35.309 31.1 35.309 32C35.309 32.9 35.909 33.5 36.809 33.5C37.709 33.5 38.309 32.9 38.309 32C38.309 31.1 37.709 30.5 36.809 30.5Z" fill="white"/>
<path d="M45.3591 50H25.1091C22.4091 50 20.6091 47 21.9591 44.6L26.6091 36.5H30.6591C30.6591 37.4 31.2591 38 32.1591 38C33.0591 38 33.6591 37.4 33.6591 36.5H43.7091L48.3591 44.6C49.8591 47 48.2091 50 45.3591 50ZM38.3091 39.5C36.6591 39.5 35.3091 40.85 35.3091 42.5C35.3091 44.15 36.6591 45.5 38.3091 45.5C39.9591 45.5 41.3091 44.15 41.3091 42.5C41.3091 40.85 39.9591 39.5 38.3091 39.5Z" fill="white"/>
<rect x="0.5" y="0.5" width="69" height="69" rx="8.5" stroke="#FFEB39"/>
</svg>
