<svg width="70" height="70" viewBox="0 0 70 70" fill="none" xmlns="http://www.w3.org/2000/svg">
<rect x="0.5" y="0.5" width="69" height="69" rx="8.5" fill="#EFD600"/>
<path d="M30.05 23.2999L23 26.45V45.3498L30.05 42.2V45.4999L21.65 49.2499C20.9 49.5499 20 49.1 20 48.2V25.9999C20 25.0999 20.45 24.3499 21.35 24.0499L30.05 20.1499V23.2999Z" fill="white"/>
<path d="M39.95 46.6999L46.9999 43.5497V24.6498L39.95 27.7997V24.4998L48.3499 20.7498C49.0999 20.4498 49.9999 20.8997 49.9999 21.7997V43.9998C49.9999 44.8998 49.5499 45.6499 48.6499 45.9499L39.95 49.8496V46.6999Z" fill="white"/>
<path opacity="0.3" d="M39.95 27.7999L46.9999 24.6499V43.5499L39.95 46.7V27.7999Z" fill="white"/>
<path opacity="0.3" d="M30.05 23.2999V20L40.1001 24.5V27.7999L30.05 23.2999ZM30.05 42.2001V45.5L40.1001 50V46.7001L30.05 42.2001Z" fill="white"/>
<path opacity="0.3" d="M30.05 42.2L23 45.3497V26.45L30.05 23.2998V42.2Z" fill="white"/>
<rect x="0.5" y="0.5" width="69" height="69" rx="8.5" stroke="#FFEB39"/>
</svg>
