<svg width="44" height="37" viewBox="0 0 44 37" fill="none" xmlns="http://www.w3.org/2000/svg">
<rect width="44" height="44" rx="6" fill="#EEE5FF"/>
<path fill-rule="evenodd" clip-rule="evenodd" d="M12.6667 19.2871L20.6937 23.9215C20.7802 23.9714 20.8708 24.0075 20.963 24.0303V33.0185L13.2392 28.4475C12.8844 28.2375 12.6667 27.8558 12.6667 27.4435V19.2871ZM31.3334 19.1641V27.4436C31.3334 27.8559 31.1158 28.2376 30.7609 28.4476L23.0371 33.0186V23.9517C23.0559 23.9423 23.0746 23.9323 23.0931 23.9216L31.3334 19.1641Z" fill="#8950FC"/>
<path opacity="0.3" fill-rule="evenodd" clip-rule="evenodd" d="M12.9187 17.0381C13.0167 16.9143 13.1405 16.8096 13.2848 16.7328L21.4514 12.383C21.7943 12.2004 22.2055 12.2004 22.5483 12.383L30.715 16.7328C30.8262 16.792 30.9253 16.8678 31.0097 16.9561L22.0558 22.1256C21.997 22.1596 21.9427 22.1985 21.8932 22.2415C21.8437 22.1985 21.7894 22.1596 21.7306 22.1256L12.9187 17.0381Z" fill="#8950FC"/>
</svg>
