<svg width="28" height="28" viewBox="0 0 28 28" fill="none" xmlns="http://www.w3.org/2000/svg">
<path opacity="0.25" fill-rule="evenodd" clip-rule="evenodd" d="M3.6297 15.4336C3.8166 12.8478 5.84938 10.8402 8.43676 10.6757C9.98407 10.5773 11.876 10.5 14 10.5C16.124 10.5 18.0159 10.5773 19.5632 10.6757C22.1506 10.8402 24.1834 12.8478 24.3703 15.4336C24.4457 16.4773 24.5 17.5991 24.5 18.6667C24.5 19.7342 24.4457 20.856 24.3703 21.8997C24.1834 24.4856 22.1506 26.4932 19.5632 26.6576C18.0159 26.756 16.124 26.8333 14 26.8333C11.876 26.8333 9.98408 26.756 8.43676 26.6576C5.84939 26.4932 3.8166 24.4856 3.6297 21.8997C3.55427 20.856 3.5 19.7342 3.5 18.6667C3.5 17.5991 3.55427 16.4773 3.6297 15.4336Z" fill="#A2A7B4"/>
<path fill-rule="evenodd" clip-rule="evenodd" d="M15.1667 19.521C15.8642 19.1176 16.3334 18.3635 16.3334 17.4998C16.3334 16.2112 15.2887 15.1665 14.0001 15.1665C12.7114 15.1665 11.6667 16.2112 11.6667 17.4998C11.6667 18.3635 12.136 19.1176 12.8334 19.521V20.9998C12.8334 21.6442 13.3557 22.1665 14.0001 22.1665C14.6444 22.1665 15.1667 21.6442 15.1667 20.9998V19.521Z" fill="#A2A7B4"/>
<path fill-rule="evenodd" clip-rule="evenodd" d="M8.16675 6.99984C8.16675 3.77818 10.7784 1.1665 14.0001 1.1665C17.2217 1.1665 19.8334 3.77818 19.8334 6.99984V11.6665C19.8334 12.3108 19.3111 12.8332 18.6667 12.8332C18.0224 12.8332 17.5001 12.3108 17.5001 11.6665V6.99984C17.5001 5.06684 15.9331 3.49984 14.0001 3.49984C12.0671 3.49984 10.5001 5.06684 10.5001 6.99984V11.6665C10.5001 12.3108 9.97775 12.8332 9.33341 12.8332C8.68908 12.8332 8.16675 12.3108 8.16675 11.6665V6.99984Z" fill="#A2A7B4"/>
</svg>
