<svg width="28" height="28" viewBox="0 0 28 28" fill="none" xmlns="http://www.w3.org/2000/svg">
<path opacity="0.25" d="M2.33325 5.8335C2.33325 3.9005 3.90026 2.3335 5.83325 2.3335H22.1666C24.0996 2.3335 25.6666 3.9005 25.6666 5.8335V17.2171C25.6666 18.1453 25.2978 19.0356 24.6415 19.692L19.6917 24.6417C19.0353 25.2981 18.1451 25.6668 17.2168 25.6668H5.83325C3.90026 25.6668 2.33325 24.0998 2.33325 22.1668V5.8335Z" fill="#A2A7B4"/>
<path d="M25.5475 18.1225C25.6357 17.7933 25.3634 17.5 25.0226 17.5H18.6667C18.0223 17.5 17.5 18.0223 17.5 18.6667V25.0226C17.5 25.3634 17.7933 25.6357 18.1225 25.5475C18.711 25.3899 19.2535 25.0798 19.6918 24.6415L24.6415 19.6918C25.0798 19.2535 25.3899 18.711 25.5475 18.1225Z" fill="#A2A7B4"/>
</svg>
