<svg width="40" height="40" viewBox="0 0 40 40" fill="none" xmlns="http://www.w3.org/2000/svg">
<rect width="40" height="40" rx="9" fill="#FFEA33"/>
<path opacity="0.3" d="M20 30C21.6569 30 23 28.6569 23 27C23 25.3431 21.6569 24 20 24C18.3431 24 17 25.3431 17 27C17 28.6569 18.3431 30 20 30Z" fill="#3F4254"/>
<path d="M27 23V26C27 26.6 26.6 27 26 27H14C13.4 27 13 26.6 13 26V23C14.1 23 15 22.1 15 21V18C15 15.6 16.7 13.6 19 13.1V11C19 10.4 19.4 10 20 10C20.6 10 21 10.4 21 11V13.1C23.3 13.6 25 15.6 25 18V21C25 22.1 25.9 23 27 23ZM19 18C19 17.4 19.4 17 20 17C20.6 17 21 16.6 21 16C21 15.4 20.6 15 20 15C18.3 15 17 16.3 17 18C17 18.6 17.4 19 18 19C18.6 19 19 18.6 19 18Z" fill="#3F4254"/>
</svg>
