<svg width="40" height="40" viewBox="0 0 40 40" fill="none" xmlns="http://www.w3.org/2000/svg">
<rect width="40" height="40" rx="9" fill="#FFEA33"/>
<path opacity="0.3" d="M28 11H12C10.8954 11 10 11.8954 10 13V24C10 25.1046 10.8954 26 12 26H12.5C13.0523 26 13.5 26.4477 13.5 27V29.5052C13.5 30.1441 14.2121 30.5253 14.7438 30.1708L19.4885 27.0077C20.4741 26.3506 21.6321 26 22.8167 26H28C29.1046 26 30 25.1046 30 24V13C30 11.8954 29.1046 11 28 11Z" fill="#3F4254"/>
<rect x="14" y="20" width="7" height="2" rx="1" fill="#3F4254"/>
<rect x="14" y="15" width="12" height="2" rx="1" fill="#3F4254"/>
</svg>
