<svg width="50" height="50" viewBox="0 0 50 50" fill="none" xmlns="http://www.w3.org/2000/svg">
<rect width="50" height="50" rx="6" fill="#F3F6F9"/>
<path d="M20.3228 39C16.8131 39 13.9578 36.1447 13.9578 32.6349V21.7345C13.9578 15.8155 18.7732 11 24.6922 11H25.3079C31.227 11 36.0425 15.8155 36.0425 21.7345C36.0425 27.1662 31.9931 31.7001 26.6879 32.3807V32.6349C26.6879 36.1447 23.8326 39 20.3228 39Z" fill="#FF3C3C"/>
<path d="M25.3078 11H25V36.9471C26.0471 35.8123 26.6878 34.2971 26.6878 32.6349V32.3807C31.993 31.7001 36.0424 27.1662 36.0424 21.7345C36.0423 15.8155 31.2269 11 25.3078 11Z" fill="#DA0806"/>
<path d="M25.3078 14.2729H24.692C20.5778 14.2729 17.2305 17.6203 17.2305 21.7345V32.6347C17.2305 34.34 18.6175 35.727 20.3227 35.727C22.0274 35.727 23.4144 34.34 23.4144 32.6347V29.1961H25.3077C29.422 29.1961 32.7693 25.8488 32.7693 21.7346C32.7693 17.6204 29.422 14.2729 25.3078 14.2729ZM25.3078 24.6608H22.5898C22.1347 24.6608 21.7652 24.2919 21.7652 23.8362V21.7345C21.7652 20.1205 23.078 18.8077 24.692 18.8077H25.3078C26.9218 18.8077 28.2346 20.1205 28.2346 21.7345C28.2346 23.348 26.9218 24.6608 25.3078 24.6608Z" fill="white"/>
<path d="M25.3078 14.2729H25V18.8077H25.3078C26.9219 18.8077 28.2347 20.1205 28.2347 21.7346C28.2347 23.3481 26.9219 24.6608 25.3078 24.6608H25V29.1962H25.3078C29.4221 29.1962 32.7694 25.8488 32.7694 21.7346C32.7694 17.6204 29.4221 14.2729 25.3078 14.2729Z" fill="#DCE1EB"/>
</svg>
