<svg width="50" height="50" viewBox="0 0 50 50" fill="none" xmlns="http://www.w3.org/2000/svg">
<rect width="50" height="50" rx="12" fill="#F3F6F9"/>
<g clip-path="url(#clip0_436_1618)">
<path d="M32.508 25.984H27.4381C27.2031 25.984 27.0126 25.7934 27.0126 25.5584V24.7553C27.0126 24.6307 27.0671 24.5124 27.1619 24.4315C27.6539 24.0119 27.936 23.4009 27.936 22.7552C27.936 21.5408 26.948 20.5528 25.7336 20.5528C24.5192 20.5528 23.5312 21.5408 23.5312 22.7552C23.5312 23.3692 23.7778 23.9392 24.2256 24.3601C24.3112 24.4406 24.3596 24.5528 24.3596 24.6703V25.5585C24.3596 25.7935 24.1691 25.984 23.9341 25.984H18.492C18.2569 25.984 18.0664 25.7935 18.0664 25.5585V11.4256C18.0664 11.1905 18.2569 11 18.492 11H32.508C32.7431 11 32.9336 11.1905 32.9336 11.4256V15.2048H33.1912C33.7547 14.6762 34.5064 14.3763 35.282 14.3763C36.9658 14.3763 38.3356 15.7462 38.3356 17.4299C38.3356 19.1137 36.9658 20.4835 35.282 20.4835C34.4544 20.4835 33.6679 20.1493 33.0943 19.56H32.9335V25.5585C32.9335 25.7935 32.7431 25.984 32.508 25.984Z" fill="#FF7C48"/>
<path d="M35.2821 14.3763C34.5065 14.3763 33.7547 14.6762 33.1912 15.2048H32.9337V11.4256C32.9337 11.1905 32.7431 11 32.5081 11H25.7336V20.5528C26.948 20.5528 27.9361 21.5408 27.9361 22.7552C27.9361 23.4009 27.6539 24.0119 27.162 24.4315C27.0672 24.5124 27.0126 24.6307 27.0126 24.7553V25.5584C27.0126 25.7934 27.2031 25.984 27.4382 25.984H32.5081C32.7431 25.984 32.9337 25.7934 32.9337 25.5584V19.56H33.0944C33.668 20.1492 34.4545 20.4835 35.2822 20.4835C36.9659 20.4835 38.3358 19.1136 38.3358 17.4299C38.3358 15.7461 36.9659 14.3763 35.2821 14.3763Z" fill="#FF415B"/>
<path d="M32.5079 40.0001H18.4919C18.2569 40.0001 18.0663 39.8097 18.0663 39.5746V34.6966H17.9057C17.332 35.2858 16.5456 35.6201 15.7179 35.6201C14.0342 35.6201 12.6643 34.2502 12.6643 32.5665C12.6643 30.8828 14.0342 29.5129 15.7179 29.5129C16.4936 29.5129 17.2453 29.8127 17.8088 30.3414H18.0663V25.5585C18.0663 25.3234 18.2569 25.1329 18.4919 25.1329H23.5084V24.8461C22.9797 24.2827 22.68 23.531 22.68 22.7553C22.68 21.0715 24.0498 19.7017 25.7335 19.7017C27.4173 19.7017 28.7871 21.0715 28.7871 22.7553C28.7871 23.5829 28.4529 24.3694 27.8637 24.943V25.1329H32.5079C32.743 25.1329 32.9335 25.3234 32.9335 25.5585V30.767C32.9335 31.0021 32.743 31.1926 32.5079 31.1926H31.6489C31.5315 31.1926 31.4193 31.1441 31.3388 31.0585C30.918 30.6108 30.348 30.3642 29.7339 30.3642C28.5195 30.3642 27.5315 31.3523 27.5315 32.5667C27.5315 33.7811 28.5195 34.769 29.7339 34.769C30.3796 34.769 30.9906 34.4869 31.4103 33.995C31.4911 33.9002 31.6095 33.8456 31.734 33.8456H32.5079C32.7429 33.8456 32.9335 34.0361 32.9335 34.2712V39.5747C32.9335 39.8097 32.743 40.0001 32.5079 40.0001Z" fill="#8EE16A"/>
<path d="M29.7339 30.3642C30.3479 30.3642 30.9179 30.6108 31.3388 31.0585C31.4192 31.1441 31.5315 31.1926 31.6489 31.1926H32.5079C32.7429 31.1926 32.9335 31.0021 32.9335 30.767V25.5585C32.9335 25.3235 32.7429 25.1329 32.5079 25.1329H27.8636V24.943C28.4528 24.3694 28.787 23.5829 28.787 22.7553C28.787 21.0715 27.4172 19.7017 25.7334 19.7017V40.0001H32.5078C32.7429 40.0001 32.9334 39.8096 32.9334 39.5745V34.271C32.9334 34.0359 32.7429 33.8454 32.5078 33.8454H31.734C31.6094 33.8454 31.4911 33.9 31.4102 33.9948C30.9906 34.4867 30.3796 34.7689 29.7339 34.7689C28.5195 34.7689 27.5315 33.7809 27.5315 32.5665C27.5315 31.3523 28.5195 30.3642 29.7339 30.3642Z" fill="#00CAB1"/>
</g>
<defs>
<clipPath id="clip0_436_1618">
<rect width="29" height="29" fill="white" transform="translate(11 11)"/>
</clipPath>
</defs>
</svg>
