<svg width="46" height="46" viewBox="0 0 46 46" fill="none" xmlns="http://www.w3.org/2000/svg">
<rect width="46" height="46" rx="23" fill="#F1416C"/>
<path d="M32.7 29.8998L29.6001 26.7998C28.9001 27.8998 27.9 28.8998 26.8 29.5998L29.9 32.6998C30.3 33.0998 30.9 33.0998 31.3 32.6998L32.7 31.2998C33.1 30.8998 33.1 30.2998 32.7 29.8998Z" fill="white"/>
<path opacity="0.5" d="M22 31C17 31 13 27 13 22C13 17 17 13 22 13C27 13 31 17 31 22C31 27 27 31 22 31ZM22 15C18.1 15 15 18.1 15 22C15 25.9 18.1 29 22 29C25.9 29 29 25.9 29 22C29 18.1 25.9 15 22 15ZM19 22C19 20.3 20.3 19 22 19C22.6 19 23 18.6 23 18C23 17.4 22.6 17 22 17C19.2 17 17 19.2 17 22C17 22.6 17.4 23 18 23C18.6 23 19 22.6 19 22Z" fill="white"/>
</svg>
