<svg width="46" height="46" viewBox="0 0 46 46" fill="none" xmlns="http://www.w3.org/2000/svg">
<rect width="46" height="46" rx="23" fill="#21293B"/>
<path opacity="0.3" d="M33.1 22.5V23.6C33.1 24.2 32.7 24.6 32.2 24.7L30.9 24.9C30.7 25.7 30.4 26.5 29.9 27.2L30.7 28.2999C31 28.6999 31 29.3999 30.6 29.7999L29.8 30.6C29.4 31 28.8 31 28.3 30.7L27.2 29.9C26.5 30.3 25.7 30.7 24.9 30.9L24.7 32.2C24.6 32.7 24.1 33.1 23.6 33.1H22.5C21.9 33.1 21.5 32.7 21.4 32.2L21.2 30.9C20.4 30.7 19.6 30.4 18.9 29.9L17.8 30.7C17.4 31 16.7 31 16.3 30.6L15.5 29.7999C15.1 29.3999 15.1 28.7999 15.4 28.2999L16.2 27.2C15.8 26.5 15.4 25.7 15.2 24.9L13.9 24.7C13.4 24.6 13 24.1 13 23.6V22.5C13 21.9 13.4 21.5 13.9 21.4L15.2 21.2C15.4 20.4 15.7 19.6 16.2 18.9L15.4 17.7999C15.1 17.3999 15.1 16.6999 15.5 16.2999L16.3 15.5C16.7 15.1 17.3 15.1 17.8 15.4L18.9 16.2C19.6 15.8 20.4 15.4 21.2 15.2L21.4 13.9C21.5 13.4 22 13 22.5 13H23.6C24.2 13 24.6 13.4 24.7 13.9L24.9 15.2C25.7 15.4 26.5 15.7 27.2 16.2L28.3 15.4C28.7 15.1 29.4 15.1 29.8 15.5L30.6 16.2999C31 16.6999 31 17.2999 30.7 17.7999L29.9 18.9C30.3 19.6 30.7 20.4 30.9 21.2L32.2 21.4C32.7 21.5 33.1 22 33.1 22.5ZM23.1 19.6C21.2 19.6 19.6 21.2 19.6 23.1C19.6 25 21.2 26.6 23.1 26.6C25 26.6 26.6 25 26.6 23.1C26.6 21.2 25 19.6 23.1 19.6Z" fill="white"/>
<path d="M28.1001 23.1001C28.1001 25.9001 25.9001 28.1001 23.1001 28.1001C20.3001 28.1001 18.1001 25.9001 18.1001 23.1001C18.1001 20.3001 20.3001 18.1001 23.1001 18.1001C25.9001 18.1001 28.1001 20.3001 28.1001 23.1001ZM23.1001 21.1001C22.0001 21.1001 21.1001 22.0001 21.1001 23.1001C21.1001 24.2001 22.0001 25.1001 23.1001 25.1001C24.2001 25.1001 25.1001 24.2001 25.1001 23.1001C25.1001 22.0001 24.2001 21.1001 23.1001 21.1001Z" fill="white"/>
</svg>
