<svg width="28" height="28" viewBox="0 0 28 28" fill="none" xmlns="http://www.w3.org/2000/svg">
<path d="M19.8334 6.99984C19.8334 10.2215 17.2217 12.8332 14.0001 12.8332C10.7784 12.8332 8.16675 10.2215 8.16675 6.99984C8.16675 3.77818 10.7784 1.1665 14.0001 1.1665C17.2217 1.1665 19.8334 3.77818 19.8334 6.99984Z" fill="#A2A7B4"/>
<path opacity="0.25" fill-rule="evenodd" clip-rule="evenodd" d="M21.9543 16.4788C21.2352 15.645 20 15.688 19.0341 16.2167C17.5395 17.0348 15.824 17.4999 14 17.4999C12.176 17.4999 10.4605 17.0348 8.96589 16.2167C8.00003 15.688 6.76481 15.645 6.04567 16.4788C4.45926 18.3182 3.5 20.7137 3.5 23.3332V24.4999C3.5 25.7885 4.54467 26.8332 5.83333 26.8332H22.1667C23.4553 26.8332 24.5 25.7885 24.5 24.4999V23.3332C24.5 20.7137 23.5407 18.3182 21.9543 16.4788Z" fill="#A2A7B4"/>
</svg>
